M48
; DRILL file {KiCad (5.1.7-0-10_14)} date Monday, January 25, 2021 at 06:37:31 PM
; FORMAT={-:-/ absolute / inch / decimal}
; #@! TF.CreationDate,2021-01-25T18:37:31-08:00
; #@! TF.GenerationSoftware,Kicad,Pcbnew,(5.1.7-0-10_14)
FMAT,2
INCH
T1C0.0157
T2C0.0197
T3C0.0394
T4C0.0433
T5C0.0598
T6C0.1260
%
G90
G05
T1
X-0.9252Y-0.315
X-0.6953Y0.7563
X-0.5906Y0.3937
X-0.5906Y-0.1181
X-0.5704Y0.458
X-0.5413Y0.6984
X-0.5098Y0.0098
X-0.3025Y-0.0282
X-0.272Y0.4803
X-0.2717Y0.4307
X-0.2713Y0.3803
X-0.2701Y0.3307
X-0.2547Y0.2803
X-0.2165Y0.0906
X-0.189Y0.2756
X-0.1654Y0.063
X-0.1575Y0.5709
X-0.139Y-0.2512
X-0.1024Y0.6299
X-0.0512Y0.1811
X-0.0236Y-0.252
X0.0079Y0.5236
X0.0787Y0.5709
X0.1169Y0.0752
X0.1673Y0.2461
X0.1811Y0.5315
X0.1969Y0.374
X0.2047Y0.1693
X0.2461Y0.1181
X0.2484Y0.478
X0.2559Y0.1772
X0.2992Y-0.0157
X0.3858Y-0.4173
X0.3937Y0.7244
X0.4567Y0.6024
X0.4724Y-0.2461
X0.4764Y-0.4449
X0.5315Y0.1969
X0.5315Y-0.2201
X0.5472Y0.6969
X0.5906Y0.5315
X0.6102Y0.0
X0.6339Y-0.4409
T2
X0.752Y-0.8465
X0.7796Y-0.7796
X0.7796Y-0.9133
X0.8465Y-0.752
X0.8465Y-0.9409
X0.9133Y-0.7796
X0.9133Y-0.9133
X0.9409Y-0.8465
X-0.9409Y0.8465
X-0.9133Y0.9133
X-0.9133Y0.7796
X-0.8465Y0.9409
X-0.8465Y0.752
X-0.7796Y0.9133
X-0.7796Y0.7796
X-0.752Y0.8465
X-0.9409Y-0.8465
X-0.9133Y-0.7796
X-0.9133Y-0.9133
X-0.8465Y-0.752
X-0.8465Y-0.9409
X-0.7796Y-0.7796
X-0.7796Y-0.9133
X-0.752Y-0.8465
X0.752Y0.8465
X0.7796Y0.9133
X0.7796Y0.7796
X0.8465Y0.9409
X0.8465Y0.752
X0.9133Y0.9133
X0.9133Y0.7796
X0.9409Y0.8465
T3
X0.6378Y0.9213
X0.6378Y0.8213
X0.6378Y0.7213
X-0.5059Y-0.5059
X-0.4059Y-0.5059
X-0.3059Y-0.5059
X-0.2051Y-0.135
X-0.1051Y-0.135
X-0.0051Y-0.135
X0.0949Y-0.135
X-0.4594Y0.4622
X-0.4594Y0.3622
X-0.4594Y0.2622
X-0.4594Y0.1622
X-0.4594Y0.0622
X-0.4594Y-0.0378
X-0.4594Y-0.1378
X-0.4594Y-0.2378
X0.4579Y0.4646
X0.4579Y0.3646
X0.4579Y0.2646
X0.4579Y0.1646
X0.1654Y-0.3425
X0.2361Y-0.4132
X0.3068Y-0.4839
T4
X-0.8425Y0.039
X-0.8425Y-0.061
X-0.8425Y-0.161
X0.85Y0.0429
X0.85Y-0.0571
X0.85Y-0.1571
X0.8425Y0.5484
X0.8425Y0.4484
X0.8425Y0.3484
X-0.8465Y0.5543
X-0.8465Y0.4543
X-0.8465Y0.3543
T5
X0.3315Y-0.8268
X0.5315Y-0.8268
X0.8268Y-0.3937
X0.8268Y-0.5937
X-0.5346Y-0.8268
X-0.3346Y-0.8268
X-0.8268Y-0.3906
X-0.8268Y-0.5906
X-0.1016Y-0.8268
X0.0984Y-0.8268
T6
X0.8465Y-0.8465
X-0.8465Y0.8465
X-0.8465Y-0.8465
X0.8465Y0.8465
T0
M30
